<svg xmlns="http://www.w3.org/2000/svg" viewBox="0 0 494.64 75.38" data-name="Layer 1" id="Layer_1"><defs id="defs817"><style id="style815">.cls-1{fill:#fff}.cls-2{fill:#727373}</style><filter height="1.504167" y="-.252083" width="1.50419" x="-.252095" id="filter3922" style="color-interpolation-filters:sRGB"><feGaussianBlur id="feGaussianBlur3924" stdDeviation="1.424375"/></filter><filter height="1.174546" y="-.087273" width="1.323415" x="-.161708" id="filter3926" style="color-interpolation-filters:sRGB"><feGaussianBlur id="feGaussianBlur3928" stdDeviation="1.424375"/></filter><filter height="1.170579" y="-.085289" width="1.199039" x="-.09952" id="filter3930" style="color-interpolation-filters:sRGB"><feGaussianBlur id="feGaussianBlur3932" stdDeviation="1.424375"/></filter><filter height="1.122439" y="-.06122" width="1.190499" x="-.095249" id="filter3934" style="color-interpolation-filters:sRGB"><feGaussianBlur id="feGaussianBlur3936" stdDeviation="1.424375"/></filter><filter height="1.170575" y="-.085288" width="1.212792" x="-.106396" id="filter3938" style="color-interpolation-filters:sRGB"><feGaussianBlur id="feGaussianBlur3940" stdDeviation="1.424375"/></filter><filter height="1.174458" y="-.087229" width="1.204273" x="-.102136" id="filter3942" style="color-interpolation-filters:sRGB"><feGaussianBlur id="feGaussianBlur3944" stdDeviation="1.424375"/></filter><filter height="1.170572" y="-.085286" width="1.212395" x="-.106198" id="filter3946" style="color-interpolation-filters:sRGB"><feGaussianBlur id="feGaussianBlur3948" stdDeviation="1.424375"/></filter><filter height="1.130527" y="-.065263" width="1.120902" x="-.060451" id="filter3950" style="color-interpolation-filters:sRGB"><feGaussianBlur id="feGaussianBlur3952" stdDeviation="1.424375"/></filter><filter height="1.160192" y="-.080096" width="1.146059" x="-.073029" id="filter3954" style="color-interpolation-filters:sRGB"><feGaussianBlur id="feGaussianBlur3956" stdDeviation="1.424375"/></filter><filter height="1.11458" y="-.05729" width="1.151261" x="-.075631" id="filter3958" style="color-interpolation-filters:sRGB"><feGaussianBlur id="feGaussianBlur3960" stdDeviation="1.424375"/></filter><filter height="1.163839" y="-.081919" width="1.159445" x="-.079722" id="filter3962" style="color-interpolation-filters:sRGB"><feGaussianBlur id="feGaussianBlur3964" stdDeviation="1.424375"/></filter><filter height="1.125082" y="-.062541" width="1.175985" x="-.087992" id="filter3966" style="color-interpolation-filters:sRGB"><feGaussianBlur id="feGaussianBlur3968" stdDeviation="1.424375"/></filter></defs><path id="polygon821" class="cls-1" d="M0 4.07h38v10.34H14.37v11.27h22.32v10.34H14.37v12.37h24.48v10.34H0V4.07z"/><path id="path823" d="M43 17.93h12.68v7.52h.16C58.62 19.58 64.18 17 70.51 17c11 0 15.37 7.83 15.37 16.29v25.44H72V39c0-7.67-2.62-10.26-6.41-10.26-5.72 0-8.65 4-8.65 12.77v17.22H43z" class="cls-1"/><path id="path825" d="M133.91 58.73H121.1v-7.28h-.16c-1.78 4.54-7.42 8.22-13.83 8.22-12 0-18.38-10-18.38-22.08 0-10 6.1-20.59 17.22-20.59 5.56 0 10.27 1.49 13.83 6.19h.15V0h14zm-22.39-9.87c4.63 0 8.5-4.46 8.5-10.41 0-6.18-3.4-10.65-8.5-10.65-5.41 0-8.42 4.7-8.42 10.1 0 6.5 3.16 11 8.42 11" class="cls-1"/><path id="path827" d="M136.46 38.37c0-13.54 10.12-21.38 23.4-21.38s23.41 7.84 23.41 21.38-10.12 21.3-23.41 21.3-23.4-7.83-23.4-21.3m32.44 0c0-6.11-2.62-11.51-9-11.51s-9 5.4-9 11.51 2.62 11.43 9 11.43 9-5.41 9-11.43" class="cls-1"/><path style="fill:#bbdefb;fill-opacity:1" id="polygon829" class="cls-2" d="M194.25 6.35h12.21l16.21 43.52 15.91-43.52h12.22v52.38h-7.4V13.41h-.15l-17.1 45.32h-7.25l-17.1-45.32h-.15v45.32h-7.4V6.35z"/><path style="fill:#bbdefb;fill-opacity:1" id="path831" d="M261.45 23.16a23.76 23.76 0 0 1 12.43-3.61c10.8 0 15.17 5.41 15.17 15.84v15.84a59.83 59.83 0 0 0 .3 7.51h-6.52v-5h-.14A14 14 0 0 1 271 59.63c-8.14 0-13.84-3.6-13.84-11.93 0-9.61 10.35-12.61 17.54-12.61 2.74 0 4.66 0 7.4.15 0-6.61-2.37-10-9.33-10a17.59 17.59 0 0 0-10.95 3.9zm20.65 17.33c-1.48 0-3-.15-4.44-.15-3.77 0-13.1.61-13.1 7.36 0 4 3.85 6.23 7 6.23 6.89 0 10.51-4.36 10.51-10.06z" class="cls-2"/><path style="fill:#bbdefb;fill-opacity:1" id="path833" d="M297.12 20.46h6.73v6.08h.15c2.07-4.35 7.11-7 12.36-7 9.77 0 14.15 6.16 14.15 16.44v22.75h-7V38.92c0-8.93-1.93-13.28-8-13.66-7.92 0-11.47 6.45-11.47 15.76v17.71h-7z" class="cls-2"/><path style="fill:#bbdefb;fill-opacity:1" id="path835" d="M340.42 23.16a23.76 23.76 0 0 1 12.43-3.61C363.66 19.55 368 25 368 35.39v15.84a62.34 62.34 0 0 0 .29 7.51h-6.52v-5h-.15A13.94 13.94 0 0 1 350 59.63c-8.14 0-13.84-3.6-13.84-11.93 0-9.61 10.36-12.61 17.54-12.61 2.74 0 4.67 0 7.41.15 0-6.61-2.37-10-9.33-10a17.58 17.58 0 0 0-10.95 3.9zm20.65 17.33c-1.48 0-3-.15-4.44-.15-3.78 0-13.1.61-13.1 7.36 0 4 3.85 6.23 7 6.23 6.88 0 10.51-4.36 10.51-10.06z" class="cls-2"/><path style="fill:#bbdefb;fill-opacity:1" id="path837" d="M409.48 57.08c0 11.63-5.92 18.31-19.47 18.31-4 0-7.47-.52-13.55-2.63l.75-6.52c5.33 2.47 8.51 3.45 13.61 3.45 7.33 0 11.7-5 11.7-13.13V52.8h-.15a15.69 15.69 0 0 1-12.66 5.93c-10.8 0-16.12-8.93-16.12-18.84s5.47-20.34 16.87-20.34c6.66 0 10.36 2.48 12.43 6.61h.11v-5.7h6.44zm-7-17c0-8-3.62-14.78-11-14.78-7 0-10.52 7.73-10.52 14.26 0 7.2 4 13.51 10.52 13.51s11-5.86 11-13" class="cls-2"/><path style="fill:#bbdefb;fill-opacity:1" id="path839" d="M446.55 57.16a28.73 28.73 0 0 1-11.92 2.47c-13.4 0-19.54-8.26-19.54-20.71 0-11.33 7-19.37 17.69-19.37 12.59 0 16.66 9.31 16.66 21.62H422.5a12.44 12.44 0 0 0 12.43 12.76 22.13 22.13 0 0 0 11.62-3.83zM442 35.92c0-5.85-3.4-10.66-9.4-10.66-6.81 0-9.62 5.7-10.14 10.66z" class="cls-2"/><path style="fill:#bbdefb;fill-opacity:1" id="path841" d="M455.06 20.46h6.52v5.93h.14c1.86-4 5.86-6.83 9.85-6.83a19.43 19.43 0 0 1 4.59.53v6.3a10.29 10.29 0 0 0-3.86-.67c-6.21 0-10.28 6-10.28 15.6v17.41h-7z" class="cls-2"/><path style="fill:#fff;fill-opacity:1" id="path843" d="M480.8 13.14a6.72 6.72 0 0 1 6.86-6.79 6.78 6.78 0 1 1-6.86 6.79zm12.58 0a5.43 5.43 0 0 0-5.72-5.69 5.36 5.36 0 0 0-5.56 5.69 5.35 5.35 0 0 0 5.56 5.66 5.42 5.42 0 0 0 5.72-5.66zm-8.15-3.79h2.65c1.86 0 2.84 1 2.84 2.4a2.14 2.14 0 0 1-1.54 2.25l1.74 2.88h-1.52l-1.58-2.69h-1.23v2.69h-1.36zm2.65 3.76a1.27 1.27 0 0 0 1.45-1.33c0-.79-.51-1.26-1.45-1.26h-1.3v2.59z" class="cls-2"/><path transform="translate(0 -.01)" style="fill:#fff;filter:url(#filter3966)" id="polygon821-6" class="cls-1" d="M36.69 36.02H14.37v12.37h24.48v10.34H0V4.07h38v10.34H14.37v11.27h22.32z"/><path style="fill:#fff;filter:url(#filter3962)" id="path823-3" d="M43 17.919999h12.68v7.52h.16c2.78-5.87 8.34-8.45 14.67-8.45 11 0 15.37 7.83 15.37 16.29v25.439998H72V38.989999c0-7.67-2.62-10.26-6.41-10.26-5.72 0-8.65 4-8.65 12.77v17.219998H43z" class="cls-1"/><path style="fill:#fff;filter:url(#filter3958)" id="path825-3" d="M133.91 58.719997H121.1v-7.28h-.16c-1.78 4.54-7.42 8.22-13.83 8.22-12 0-18.38-9.999998-18.38-22.079998 0-10 6.1-20.59 17.22-20.59 5.56 0 10.27 1.49 13.83 6.19h.15v-23.19h14zm-22.39-9.869998c4.63 0 8.5-4.46 8.5-10.41 0-6.18-3.4-10.65-8.5-10.65-5.41 0-8.42 4.7-8.42 10.1 0 6.5 3.16 11 8.42 11" class="cls-1"/><path style="fill:#fff;filter:url(#filter3954)" id="path827-4" d="M136.46 38.359999c0-13.54 10.12-21.38 23.4-21.38s23.41 7.84 23.41 21.38c0 13.539998-10.12 21.299998-23.41 21.299998-13.29 0-23.4-7.83-23.4-21.299998m32.44 0c0-6.11-2.62-11.51-9-11.51s-9 5.4-9 11.51c0 6.11 2.62 11.43 9 11.43s9-5.41 9-11.43" class="cls-1"/><path transform="translate(0 -.01)" style="fill:#bbdefb;fill-opacity:1;filter:url(#filter3950)" id="polygon829-9" class="cls-2" d="M243.4 58.73V13.41h-.15l-17.1 45.32h-7.25l-17.1-45.32h-.15v45.32h-7.4V6.35h12.21l16.21 43.52 15.91-43.52h12.22v52.38z"/><path style="fill:#bbdefb;fill-opacity:1;filter:url(#filter3946)" id="path831-4" d="M261.45 23.149999a23.76 23.76 0 0 1 12.43-3.61c10.8 0 15.17 5.41 15.17 15.84v15.839998a59.83 59.83 0 0 0 .3 7.51h-6.52v-5h-.14a14 14 0 0 1-11.69 5.89c-8.14 0-13.84-3.6-13.84-11.929998 0-9.61 10.35-12.61 17.54-12.61 2.74 0 4.66 0 7.4.15 0-6.61-2.37-10-9.33-10a17.59 17.59 0 0 0-10.95 3.9zm20.65 17.33c-1.48 0-3-.15-4.44-.15-3.77 0-13.1.61-13.1 7.36 0 3.999998 3.85 6.229998 7 6.229998 6.89 0 10.51-4.359998 10.51-10.059998z" class="cls-2"/><path style="fill:#bbdefb;fill-opacity:1;filter:url(#filter3942)" id="path833-6" d="M297.12 20.449999h6.73v6.08h.15c2.07-4.35 7.11-7 12.36-7 9.77 0 14.15 6.16 14.15 16.44v22.749998h-7V38.909999c0-8.93-1.93-13.28-8-13.66-7.92 0-11.47 6.45-11.47 15.76v17.709998h-7z" class="cls-2"/><path style="fill:#bbdefb;fill-opacity:1;filter:url(#filter3938)" id="path835-0" d="M340.42 23.149999a23.76 23.76 0 0 1 12.43-3.61c10.81 0 15.15 5.45 15.15 15.84v15.839998a62.34 62.34 0 0 0 .29 7.51h-6.52v-5h-.15a13.94 13.94 0 0 1-11.62 5.89c-8.14 0-13.84-3.6-13.84-11.929998 0-9.61 10.36-12.61 17.54-12.61 2.74 0 4.67 0 7.41.15 0-6.61-2.37-10-9.33-10a17.58 17.58 0 0 0-10.95 3.9zm20.65 17.33c-1.48 0-3-.15-4.44-.15-3.78 0-13.1.61-13.1 7.36 0 3.999998 3.85 6.229998 7 6.229998 6.88 0 10.51-4.359998 10.51-10.059998z" class="cls-2"/><path style="fill:#bbdefb;fill-opacity:1;filter:url(#filter3934)" id="path837-9" d="M409.48 57.069997c0 11.63-5.92 18.31-19.47 18.31-4 0-7.47-.52-13.55-2.63l.75-6.52c5.33 2.47 8.51 3.45 13.61 3.45 7.33 0 11.7-5 11.7-13.13v-3.76h-.15a15.69 15.69 0 0 1-12.66 5.93c-10.8 0-16.12-8.929998-16.12-18.839998 0-9.91 5.47-20.34 16.87-20.34 6.66 0 10.36 2.48 12.43 6.61h.11v-5.7h6.44zm-7-16.999998c0-8-3.62-14.78-11-14.78-7 0-10.52 7.73-10.52 14.26 0 7.2 4 13.509998 10.52 13.509998s11-5.859998 11-12.999998" class="cls-2"/><path style="fill:#bbdefb;fill-opacity:1;filter:url(#filter3930)" id="path839-1" d="M446.55 57.149997a28.73 28.73 0 0 1-11.92 2.47c-13.4 0-19.54-8.26-19.54-20.709998 0-11.33 7-19.37 17.69-19.37 12.59 0 16.66 9.31 16.66 21.62H422.5a12.44 12.44 0 0 0 12.43 12.759998 22.13 22.13 0 0 0 11.62-3.829998zM442 35.909999c0-5.85-3.4-10.66-9.4-10.66-6.81 0-9.62 5.7-10.14 10.66z" class="cls-2"/><path style="fill:#bbdefb;fill-opacity:1;filter:url(#filter3926)" id="path841-4" d="M455.06 20.449999h6.52v5.93h.14c1.86-4 5.86-6.83 9.85-6.83a19.43 19.43 0 0 1 4.59.53v6.3a10.29 10.29 0 0 0-3.86-.67c-6.21 0-10.28 6-10.28 15.6v17.409998h-7z" class="cls-2"/><path style="fill:#fff;fill-opacity:1;filter:url(#filter3922)" id="path843-2" d="M480.8 13.129999a6.72 6.72 0 0 1 6.86-6.79 6.78 6.78 0 1 1-6.86 6.79zm12.58 0a5.43 5.43 0 0 0-5.72-5.69 5.36 5.36 0 0 0-5.56 5.69 5.35 5.35 0 0 0 5.56 5.66 5.42 5.42 0 0 0 5.72-5.66zm-8.15-3.79h2.65c1.86 0 2.84 1 2.84 2.4a2.14 2.14 0 0 1-1.54 2.25l1.74 2.88h-1.52l-1.58-2.69h-1.23v2.69h-1.36zm2.65 3.76a1.27 1.27 0 0 0 1.45-1.33c0-.79-.51-1.26-1.45-1.26h-1.3v2.59z" class="cls-2"/></svg>